<svg width="189" height="166" viewBox="0 0 189 166" fill="none" xmlns="http://www.w3.org/2000/svg">
<path d="M66.5842 76.3799C64.0924 82.3714 59.9014 87.6138 53.4534 91.3477C52.1408 92.1077 50.7716 92.7808 49.3508 93.376C53.2382 98.0551 56.7213 103.141 59.9036 108.856C63.5697 115.441 66.7694 122.745 69.7483 131.03C72.7678 120.954 73.5644 110.97 72.1877 99.9326C71.2926 92.755 69.4653 84.9999 66.5842 76.3799Z" stroke="white" stroke-width="25"/>
<ellipse cx="17.5008" cy="17.5" rx="17.5008" ry="17.5" transform="matrix(-1 0 0 1 48.3381 38)" fill="white"/>
<path d="M18.361 45.121L18.0835 46.0035L19.7404 45.7158L19.9826 44.8524L18.361 45.121Z" stroke="white" stroke-width="25"/>
<path d="M121.755 76.3818C124.247 82.3724 128.438 87.6141 134.885 91.3477C136.198 92.1079 137.567 92.7807 138.989 93.376C135.101 98.0553 131.617 103.141 128.435 108.856C124.769 115.44 121.57 122.744 118.591 131.028C115.572 120.953 114.776 110.97 116.153 99.9326C117.048 92.7556 118.875 85.001 121.755 76.3818Z" stroke="white" stroke-width="25"/>
<circle cx="157.5" cy="55.5" r="17.5" fill="white"/>
<path d="M169.976 45.122L170.254 46.0035L168.598 45.7157L168.355 44.8524L169.976 45.122Z" stroke="white" stroke-width="25"/>
<path d="M105.5 22.0605C103.532 22.5331 101.603 23.1847 99.6692 24.1074C97.4106 25.1854 95.3095 26.5518 93.2268 28.2012C91.5913 27.0195 89.9075 25.9458 88.0901 25.0107C86.0011 23.936 83.8452 23.0984 81.5002 22.4326V9.53418C83.2981 10.3708 85.2819 11.7494 88.0725 14.6758L93.4983 20.3662L98.926 14.6777C101.762 11.7063 103.718 10.2455 105.5 9.36621V22.0605Z" stroke="white" stroke-width="15"/>
<path d="M118 32C107.804 31.9749 102.54 33.6683 93.5002 38C85.558 33.8247 80.1668 32.6351 69.0002 32.5V5.50002C70.8193 4.92819 71.8956 4.77771 74.0002 5.00002L93.5002 9.50002L113.5 5.00002C115.715 4.78938 116.577 5.00708 118 5.50002V32Z" stroke="white"/>
</svg>
